<?xml version="1.0" encoding="UTF-8"?>
<svg width="200" height="50" viewBox="0 0 200 50" fill="none" xmlns="http://www.w3.org/2000/svg">
  <!-- Combined Icon -->
  <g id="icon">
    <!-- Vault -->
    <rect x="4" y="14" width="28" height="28" rx="3" fill="#2563EB"/>
    <circle cx="18" cy="28" r="8" fill="#1E40AF"/>
    <circle cx="18" cy="28" r="6" fill="#3B82F6" opacity="0.3"/>
    <circle cx="18" cy="28" r="2" fill="white"/>
    
    <!-- Chat bubble corner -->
    <path d="M 24 6 L 36 6 C 38 6 40 8 40 10 L 40 18 C 40 20 38 22 36 22 L 30 22 L 28 24 L 28 22 L 26 22 C 24 22 22 20 22 18 L 22 10 C 22 8 24 6 24 6 Z" 
          fill="#06B6D4"/>
    <circle cx="28" cy="14" r="1" fill="white"/>
    <circle cx="32" cy="14" r="1" fill="white"/>
    <circle cx="36" cy="14" r="1" fill="white"/>
  </g>
  
  <!-- Text -->
  <text x="50" y="32" font-family="Inter, -apple-system, system-ui, sans-serif" font-size="20" font-weight="700" fill="#1F2937">
    Convo<tspan fill="#2563EB">Vault</tspan>
  </text>
</svg>

